<svg height="80" viewBox="0 0 80 80" width="80" xmlns="http://www.w3.org/2000/svg">
    <circle style="fill: #0332ff; opacity: 0.8; stroke-width: 0px;" cx="40" cy="40" r="40" />
    <path style="fill: rgb(255, 255, 255);" clip-rule="evenodd"
        d="M 38.951 19.998 C 39.061 18.761 38.721 17.696 38.019 16.943 C 37.324 16.198 36.354 15.844 35.375 15.877 C 33.371 15.945 31.463 17.565 30.989 20.455 C 30.229 25.089 30.408 32.876 31.167 40.549 C 30.336 39.976 29.427 39.525 28.467 39.211 C 26.794 38.65 24.609 38.376 22.797 38.722 C 21.887 38.896 20.984 39.243 20.302 39.879 C 19.588 40.545 19.195 41.461 19.234 42.575 C 19.263 43.419 19.817 43.973 20.314 44.308 C 20.815 44.646 21.449 44.896 22.046 45.098 C 22.43 45.228 22.856 45.357 23.261 45.479 L 23.265 45.481 L 23.272 45.483 L 23.895 45.673 C 24.498 45.863 25.001 46.041 25.375 46.235 C 25.993 46.555 26.623 47.166 27.287 48.035 C 27.946 48.897 28.574 49.923 29.227 51 L 29.307 51.132 L 29.307 51.133 C 29.923 52.15 30.564 53.208 31.238 54.111 C 31.683 54.708 32.174 55.282 32.722 55.749 C 32.664 55.878 32.633 56.018 32.633 56.161 L 32.633 61.552 C 32.633 62.502 33.306 63.344 34.275 63.508 C 39.017 64.313 45.066 64.338 48.629 63.537 C 49.555 63.328 50.133 62.5 50.133 61.627 L 50.133 56.234 C 50.424 56.064 50.681 55.843 50.89 55.58 C 51.374 54.947 51.88 53.834 52.345 52.589 C 52.873 51.153 53.327 49.691 53.705 48.209 C 54.107 46.647 54.439 45.04 54.62 43.618 C 54.796 42.235 54.848 40.894 54.597 39.94 C 54.417 39.25 53.953 38.688 53.437 38.24 C 52.912 37.785 52.251 37.378 51.534 37.015 C 50.098 36.286 48.294 35.66 46.533 35.145 C 43.685 34.315 40.836 33.745 39.574 33.511 C 39.232 31.719 38.379 26.367 38.95 19.998 Z M 48.133 56.986 C 47.953 57.029 47.769 57.07 47.581 57.108 C 46.176 57.392 44.454 57.549 42.711 57.592 C 40.964 57.635 39.163 57.564 37.594 57.379 C 36.509 57.251 35.474 57.063 34.634 56.794 L 34.634 61.541 C 39.172 62.308 44.892 62.312 48.134 61.598 L 48.134 56.986 Z M 32.963 20.779 C 33.313 18.639 34.573 17.905 35.443 17.876 C 35.9 17.861 36.293 18.024 36.556 18.306 C 36.812 18.581 37.026 19.056 36.958 19.819 C 36.266 27.533 37.58 33.8 37.74 34.529 C 37.834 34.962 38.182 35.296 38.619 35.371 C 39.102 35.454 42.549 36.067 45.972 37.066 C 47.688 37.566 49.355 38.152 50.629 38.798 C 51.267 39.122 51.771 39.443 52.127 39.751 C 52.492 40.068 52.626 40.306 52.663 40.448 C 52.808 41.001 52.808 42.008 52.636 43.365 C 52.469 44.682 52.156 46.204 51.768 47.709 C 51.408 49.123 50.975 50.518 50.471 51.889 C 50.007 53.132 49.587 53.992 49.301 54.365 C 49.269 54.407 49.118 54.545 48.711 54.715 C 48.327 54.873 47.813 55.021 47.185 55.148 C 45.93 55.401 44.332 55.552 42.662 55.593 C 40.995 55.633 39.29 55.565 37.828 55.393 C 36.329 55.216 35.205 54.943 34.62 54.641 C 34.068 54.355 33.483 53.777 32.841 52.916 C 32.227 52.091 31.631 51.107 30.996 50.061 L 30.994 50.058 L 30.937 49.963 C 30.294 48.902 29.611 47.782 28.877 46.821 C 28.147 45.868 27.302 44.981 26.295 44.459 C 25.753 44.179 25.105 43.957 24.494 43.765 C 24.254 43.69 24.022 43.62 23.797 43.552 L 23.791 43.55 C 23.422 43.441 23.054 43.325 22.688 43.204 C 22.12 43.011 21.7 42.831 21.432 42.65 C 21.356 42.604 21.289 42.546 21.232 42.478 C 21.219 41.935 21.397 41.593 21.667 41.341 C 21.975 41.054 22.476 40.82 23.172 40.687 C 24.572 40.419 26.403 40.628 27.831 41.107 C 29.381 41.627 30.339 42.365 30.898 42.912 C 31.178 43.186 31.366 43.42 31.488 43.576 L 31.504 43.597 C 31.547 43.653 31.634 43.767 31.705 43.838 C 31.728 43.861 31.801 43.935 31.909 44.002 L 31.912 44.003 C 31.962 44.035 32.397 44.304 32.906 44.041 C 33.388 43.791 33.438 43.311 33.444 43.257 L 33.444 43.254 C 33.454 43.17 33.453 43.085 33.443 43.001 C 32.453 34.546 32.161 25.666 32.963 20.779 Z M 21.222 42.461 L 21.226 42.471 L 21.221 42.461 Z"
        fill-rule="evenodd" />
</svg>