<svg xmlns:xlink="http://www.w3.org/1999/xlink" height="240.62" preserveAspectRatio="xMidYMid meet"
    version="1.1" viewBox="0 0 99.9 93.9" width="256" xmlns="http://www.w3.org/2000/svg">
    <defs>
        <path
            d="M54 0.27C58.52 1.26 62.83 3.68 65.71 6.86C68.66 10.11 70.42 13.9 71.09 18.38C71.19 19.08 71.22 19.81 71.22 21.27C71.22 22.73 71.19 23.45 71.09 24.16C70.37 29.03 68.28 33.17 64.96 36.39C61.58 39.64 57.47 41.57 52.04 42.45C51.98 42.46 51.7 42.5 51.19 42.58C51.2 43.85 51.2 44.55 51.2 44.69C51.2 45.84 51.23 46.81 51.26 46.84C51.29 46.87 51.53 46.95 51.79 47.02C52.51 47.24 53.71 47.89 54.29 48.38C55.26 49.19 55.98 50.33 56.28 51.5C56.5 52.35 56.5 53.6 56.28 54.52C56.19 54.9 56.13 55.22 56.14 55.23C56.15 55.24 56.99 55.72 58.02 56.31C59.85 57.37 59.89 57.38 60 57.22C60.48 56.53 61.73 55.12 62.68 54.17C63.86 53 65.08 52 66.35 51.17C71.25 47.95 76.93 46.96 82.58 48.33C85.15 48.95 87.87 50.19 90 51.72C94.76 55.12 97.82 60.05 98.71 65.73C98.91 67 98.95 69.95 98.79 71.31C98.59 72.97 98.19 74.79 97.69 76.31C97.65 76.44 97.65 76.44 97.72 76.34C97.88 76.1 98.51 74.3 98.82 73.2C100.17 68.42 100.26 63.69 99.09 59.05C96.78 49.89 89.85 42.44 80.69 39.27C79.57 38.89 77.38 38.31 76.64 38.21C76.05 38.12 76.05 38.12 76.36 37.3C78.38 32.08 78.57 26.08 76.92 20.31C75.61 15.78 73.29 11.75 70.02 8.39C66.33 4.61 61.99 2.11 56.72 0.73C55.46 0.41 52.89 -0.09 53 0.02C53.02 0.03 53.47 0.15 54 0.27Z"
            id="a2A5VgvQY" />
        <path
            d="M32.27 6.07C31.11 6.98 29.06 9.03 28.14 10.18C25.51 13.48 23.69 17.22 22.7 21.34C22.22 23.37 22.02 24.97 21.95 27.2C21.85 30.69 22.34 34.01 23.41 37.19C23.59 37.69 23.71 38.12 23.7 38.14C23.68 38.16 23.34 38.22 22.93 38.29C13.95 39.71 5.88 46.21 2.18 55.02C-0.29 60.87 -0.67 67.42 1.09 73.63C1.41 74.79 2.22 77.12 2.33 77.25C2.37 77.28 2.3 77 2.17 76.62C1.72 75.3 1.34 73.61 1.1 71.98C0.9 70.48 0.91 67.46 1.15 65.97C1.49 63.72 2.12 61.71 3.12 59.73C4.62 56.69 6.69 54.21 9.39 52.18C12.35 49.97 15.52 48.64 19.32 48.03C20.54 47.84 23.87 47.84 25.12 48.03C28.93 48.62 32.28 50.11 35.41 52.6C36.43 53.41 38.29 55.26 39.14 56.31C39.48 56.74 39.83 57.17 39.93 57.28C39.94 57.3 39.99 57.36 40.09 57.48C41.2 56.83 41.82 56.46 41.94 56.39C43.33 55.58 43.78 55.28 43.74 55.19C43.42 54.37 43.39 52.14 43.71 51.17C44.38 49.06 46.02 47.52 48.18 46.98C48.2 46.98 48.33 46.95 48.55 46.9L48.55 44.72L48.55 42.55C48.4 42.53 48.31 42.51 48.3 42.51C48.16 42.49 47.59 42.39 47.04 42.3C43.59 41.75 40.37 40.51 37.68 38.72C35.31 37.15 33.19 34.98 31.72 32.66C26.85 24.91 27.54 14.62 33.41 7.6C34.63 6.13 36.65 4.39 38.28 3.37C40.47 2.01 43.02 0.98 45.58 0.42C46.66 0.19 46.21 0.19 44.9 0.43C40.06 1.3 35.99 3.11 32.27 6.07Z"
            id="aFp065Dtk" />
        <path
            d="M36.95 30.17C36.25 30.58 34.18 31.94 34.18 32C34.18 32.03 35.25 33.11 36.55 34.41C36.71 34.57 37.5 35.36 38.93 36.79C39.39 36.48 39.64 36.31 39.69 36.27C41.96 34.77 44.65 33.85 47.66 33.56C48.82 33.44 51.48 33.51 52.65 33.68C53.93 33.87 55.17 34.16 56.46 34.59C57.62 34.96 59.47 35.8 60.26 36.3C60.49 36.45 60.73 36.6 60.77 36.63C60.86 36.68 65.29 32.13 65.29 32C65.29 31.96 65.07 31.76 64.79 31.56C60.27 28.15 54.6 26.47 48.62 26.78C44.58 26.98 40.46 28.18 36.95 30.17Z"
            id="cjr9gsDLF" />
        <path
            d="M23.48 56.15C24.06 62.15 26.9 67.89 31.42 72.2C32.57 73.31 33.69 74.19 35.19 75.18C36.66 76.16 39.15 77.46 39.25 77.29C39.28 77.24 39.61 76.08 39.98 74.72C40.36 73.37 40.75 71.94 40.85 71.57C40.86 71.52 40.92 71.29 41.04 70.88C40.53 70.63 40.24 70.49 40.18 70.46C38.59 69.66 37.48 68.86 36.1 67.53C34.57 66.03 33.42 64.48 32.42 62.58C30.8 59.48 29.96 56.28 29.95 53.14C29.95 53.06 29.95 52.65 29.95 51.92C28.11 51.47 27.09 51.22 26.89 51.17C25.21 50.76 23.8 50.4 23.75 50.39C23.69 50.37 23.63 50.57 23.56 50.92C23.43 51.75 23.37 55.07 23.48 56.15Z"
            id="b2jhRKvmL" />
        <path
            d="M70.56 51.91C70.07 52.04 69.67 52.16 69.66 52.17C69.65 52.18 69.67 52.54 69.72 52.96C69.8 53.86 69.74 55.28 69.58 56.4C68.99 60.44 66.89 64.43 63.66 67.64C62.27 69.02 60.9 70.08 59.36 70.92C59.06 71.09 58.81 71.23 58.8 71.23C58.77 71.24 60.56 77.39 60.6 77.42C60.65 77.46 61.97 76.89 62.75 76.5C66.49 74.62 70.01 71.35 72.34 67.62C74.14 64.72 75.42 61.35 75.98 58C76.29 56.19 76.36 54.98 76.32 52.81C76.27 50.94 76.22 50.42 76.11 50.43C76.09 50.44 75.03 50.72 73.76 51.06C72.5 51.4 71.05 51.78 70.56 51.91Z"
            id="a4zd3FoG2h" />
        <path
            d="M47.24 59.25C46.63 58.97 46.15 58.65 45.47 58.05C45.43 58.02 45.25 57.86 44.93 57.58C44.74 57.69 44.63 57.75 44.61 57.76C44.44 57.86 43.6 58.34 42.75 58.84C42.65 58.89 42.14 59.19 41.22 59.73C41.31 59.97 41.37 60.1 41.38 60.13C43.3 64.93 43.83 69.2 43.03 73.51C40.96 84.84 29.5 92.51 18.06 90.21C16.24 89.84 14.8 89.35 13.12 88.53C10.67 87.33 8.83 85.99 6.7 83.85C6.12 83.26 5.7 82.86 5.77 82.94C7.68 85.36 9.94 87.53 12.15 89.07C19.28 94.03 28.36 95.24 36.84 92.37C40.11 91.26 43.28 89.48 45.97 87.25C46.85 86.51 48.57 84.83 49.26 84.03C49.3 83.99 49.49 83.77 49.82 83.38C50.13 83.77 50.3 83.98 50.33 84.02C52.53 86.77 55.5 89.15 58.77 90.79C62.89 92.85 67.07 93.84 71.62 93.84C76.25 93.84 80.02 92.96 84.11 90.95C87.62 89.21 90.64 86.82 93.42 83.57C94.3 82.55 94.69 82.01 93.98 82.79C91.88 85.13 89.39 87.04 86.76 88.33C85.25 89.08 84.35 89.42 82.92 89.82C77.94 91.17 72.61 90.61 67.88 88.24C62.83 85.71 58.93 81.23 57.25 76.06C55.57 70.91 55.94 65.46 58.34 59.71C58.38 59.61 58.05 59.39 56.69 58.62C55.75 58.09 54.92 57.62 54.83 57.56C54.69 57.48 54.63 57.51 54.25 57.85C52.21 59.75 49.54 60.28 47.24 59.25Z"
            id="anFfWLe8K" />
    </defs>
    <g>
        <g>
            <g>
                <use fill="#fdb201" fill-opacity="1" opacity="1" xlink:href="#a2A5VgvQY" />
                <g>
                    <use fill-opacity="0" opacity="1" stroke="#000000" stroke-opacity="0"
                        stroke-width="1" xlink:href="#a2A5VgvQY" />
                </g>
            </g>
            <g>
                <use fill="#fdb201" fill-opacity="1" opacity="1" xlink:href="#aFp065Dtk" />
                <g>
                    <use fill-opacity="0" opacity="1" stroke="#000000" stroke-opacity="0"
                        stroke-width="1" xlink:href="#aFp065Dtk" />
                </g>
            </g>
            <g>
                <use fill="#fdb201" fill-opacity="1" opacity="1" xlink:href="#cjr9gsDLF" />
                <g>
                    <use fill-opacity="0" opacity="1" stroke="#000000" stroke-opacity="0"
                        stroke-width="1" xlink:href="#cjr9gsDLF" />
                </g>
            </g>
            <g>
                <use fill="#fdb201" fill-opacity="1" opacity="1" xlink:href="#b2jhRKvmL" />
                <g>
                    <use fill-opacity="0" opacity="1" stroke="#000000" stroke-opacity="0"
                        stroke-width="1" xlink:href="#b2jhRKvmL" />
                </g>
            </g>
            <g>
                <use fill="#fdb201" fill-opacity="1" opacity="1" xlink:href="#a4zd3FoG2h" />
                <g>
                    <use fill-opacity="0" opacity="1" stroke="#000000" stroke-opacity="0"
                        stroke-width="1" xlink:href="#a4zd3FoG2h" />
                </g>
            </g>
            <g>
                <use fill="#fdb201" fill-opacity="1" opacity="1" xlink:href="#anFfWLe8K" />
                <g>
                    <use fill-opacity="0" opacity="1" stroke="#000000" stroke-opacity="0"
                        stroke-width="1" xlink:href="#anFfWLe8K" />
                </g>
            </g>
        </g>
    </g>
</svg>