<svg height="40" version="1.1" viewBox="0 0 65 40" width="65" xmlns="http://www.w3.org/2000/svg">
    <path
        d="M58.88 0C62.26 0 65 2.74 65 6.12C65 12.9 65 27.1 65 33.88C65 37.26 62.26 40 58.88 40C47.1 40 17.9 40 6.12 40C2.74 40 0 37.26 0 33.88C0 27.1 0 12.9 0 6.12C0 2.74 2.74 0 6.12 0C17.9 0 47.1 0 58.88 0Z"
        fill="#172322" fill-opacity="0.75" opacity="1" />
    <path d="M34.87 25L25.37 30L25.37 20L25.37 10L34.87 15L44.37 20L34.87 25Z" fill="#ffffff"
        fill-opacity="1" opacity="1" />
</svg>